<mxfile host="Electron" modified="2024-03-11T14:34:39.464Z" agent="Mozilla/5.0 (Windows NT 10.0; Win64; x64) AppleWebKit/537.36 (KHTML, like Gecko) draw.io/23.0.2 Chrome/120.0.6099.109 Electron/28.1.0 Safari/537.36" etag="jtbEbt15t29pTHDWBC-v" version="23.0.2" type="device">
  <diagram id="wFE0QG_FPsp0jaGvCLVb" name="Page-1">
    <mxGraphModel dx="1050" dy="621" grid="1" gridSize="10" guides="1" tooltips="1" connect="1" arrows="1" fold="1" page="1" pageScale="1" pageWidth="850" pageHeight="1100" math="0" shadow="0">
      <root>
        <mxCell id="0" />
        <mxCell id="1" parent="0" />
        <mxCell id="oo3DCVxomcwvjLqp0UHB-1" value="ContactModel" style="rounded=1;arcSize=10;whiteSpace=wrap;html=1;align=center;" vertex="1" parent="1">
          <mxGeometry x="180" y="40" width="100" height="40" as="geometry" />
        </mxCell>
        <mxCell id="oo3DCVxomcwvjLqp0UHB-2" value="NoteModel" style="rounded=1;arcSize=10;whiteSpace=wrap;html=1;align=center;" vertex="1" parent="1">
          <mxGeometry x="310" y="40" width="100" height="40" as="geometry" />
        </mxCell>
        <mxCell id="oo3DCVxomcwvjLqp0UHB-3" value="ArticleModel" style="rounded=1;arcSize=10;whiteSpace=wrap;html=1;align=center;" vertex="1" parent="1">
          <mxGeometry x="440" y="40" width="100" height="40" as="geometry" />
        </mxCell>
        <mxCell id="oo3DCVxomcwvjLqp0UHB-4" value="OtherModel" style="rounded=1;arcSize=10;whiteSpace=wrap;html=1;align=center;" vertex="1" parent="1">
          <mxGeometry x="570" y="40" width="100" height="40" as="geometry" />
        </mxCell>
        <mxCell id="oo3DCVxomcwvjLqp0UHB-6" value="Low Storage&lt;br&gt;(pickle)" style="html=1;whiteSpace=wrap;" vertex="1" parent="1">
          <mxGeometry x="740" y="140" width="110" height="50" as="geometry" />
        </mxCell>
        <mxCell id="oo3DCVxomcwvjLqp0UHB-7" value="Low Storage&lt;br&gt;(json)" style="html=1;whiteSpace=wrap;" vertex="1" parent="1">
          <mxGeometry x="740" y="210" width="110" height="50" as="geometry" />
        </mxCell>
        <mxCell id="oo3DCVxomcwvjLqp0UHB-8" value="Low Storage&lt;br&gt;(yaml)" style="html=1;whiteSpace=wrap;" vertex="1" parent="1">
          <mxGeometry x="740" y="280" width="110" height="50" as="geometry" />
        </mxCell>
        <mxCell id="oo3DCVxomcwvjLqp0UHB-9" value="Low Storage&lt;br&gt;(RDb)" style="html=1;whiteSpace=wrap;" vertex="1" parent="1">
          <mxGeometry x="740" y="350" width="110" height="50" as="geometry" />
        </mxCell>
        <mxCell id="oo3DCVxomcwvjLqp0UHB-10" value="Low Storage&lt;br&gt;(NoSQL)" style="html=1;whiteSpace=wrap;" vertex="1" parent="1">
          <mxGeometry x="740" y="420" width="110" height="50" as="geometry" />
        </mxCell>
        <mxCell id="oo3DCVxomcwvjLqp0UHB-11" value="Low Storage&lt;br&gt;..." style="html=1;whiteSpace=wrap;" vertex="1" parent="1">
          <mxGeometry x="740" y="490" width="110" height="50" as="geometry" />
        </mxCell>
        <mxCell id="oo3DCVxomcwvjLqp0UHB-13" value="Storage&lt;br&gt;(Logical, memory?)" style="html=1;whiteSpace=wrap;" vertex="1" parent="1">
          <mxGeometry x="590" y="120" width="130" height="440" as="geometry" />
        </mxCell>
        <mxCell id="oo3DCVxomcwvjLqp0UHB-14" value="CRUD:&lt;br&gt;Create(Model-&amp;gt;Storage)&lt;br&gt;Read (Storage -&amp;gt; Model, extra model specific data)&lt;br&gt;Update (Data -&amp;gt; Model -&amp;gt; Storage)&lt;br&gt;Delete(Storage)" style="html=1;whiteSpace=wrap;" vertex="1" parent="1">
          <mxGeometry x="380" y="120" width="150" height="440" as="geometry" />
        </mxCell>
        <mxCell id="oo3DCVxomcwvjLqp0UHB-15" value="API" style="html=1;whiteSpace=wrap;" vertex="1" parent="1">
          <mxGeometry x="180" y="120" width="140" height="380" as="geometry" />
        </mxCell>
        <mxCell id="oo3DCVxomcwvjLqp0UHB-16" value="UI&lt;br&gt;(Web)" style="html=1;whiteSpace=wrap;" vertex="1" parent="1">
          <mxGeometry x="20" y="120" width="100" height="140" as="geometry" />
        </mxCell>
        <mxCell id="oo3DCVxomcwvjLqp0UHB-17" value="UI&lt;br&gt;(Tg)" style="html=1;whiteSpace=wrap;" vertex="1" parent="1">
          <mxGeometry x="20" y="280" width="100" height="140" as="geometry" />
        </mxCell>
        <mxCell id="oo3DCVxomcwvjLqp0UHB-18" value="UI&lt;br&gt;(TUI)" style="html=1;whiteSpace=wrap;" vertex="1" parent="1">
          <mxGeometry x="20" y="445" width="100" height="140" as="geometry" />
        </mxCell>
        <mxCell id="oo3DCVxomcwvjLqp0UHB-19" value="" style="html=1;shadow=0;dashed=0;align=center;verticalAlign=middle;shape=mxgraph.arrows2.twoWayArrow;dy=0.65;dx=22;" vertex="1" parent="1">
          <mxGeometry x="120" y="180" width="60" height="20" as="geometry" />
        </mxCell>
        <mxCell id="oo3DCVxomcwvjLqp0UHB-20" value="" style="html=1;shadow=0;dashed=0;align=center;verticalAlign=middle;shape=mxgraph.arrows2.twoWayArrow;dy=0.65;dx=22;" vertex="1" parent="1">
          <mxGeometry x="120" y="330" width="60" height="20" as="geometry" />
        </mxCell>
        <mxCell id="oo3DCVxomcwvjLqp0UHB-21" value="" style="html=1;shadow=0;dashed=0;align=center;verticalAlign=middle;shape=mxgraph.arrows2.twoWayArrow;dy=0.65;dx=22;" vertex="1" parent="1">
          <mxGeometry x="121" y="470" width="60" height="20" as="geometry" />
        </mxCell>
        <mxCell id="oo3DCVxomcwvjLqp0UHB-22" value="" style="html=1;shadow=0;dashed=0;align=center;verticalAlign=middle;shape=mxgraph.arrows2.twoWayArrow;dy=0.65;dx=22;" vertex="1" parent="1">
          <mxGeometry x="121" y="519" width="259" height="20" as="geometry" />
        </mxCell>
        <mxCell id="oo3DCVxomcwvjLqp0UHB-23" value="" style="html=1;shadow=0;dashed=0;align=center;verticalAlign=middle;shape=mxgraph.arrows2.twoWayArrow;dy=0.65;dx=22;" vertex="1" parent="1">
          <mxGeometry x="320" y="330" width="60" height="20" as="geometry" />
        </mxCell>
        <mxCell id="oo3DCVxomcwvjLqp0UHB-24" value="" style="html=1;shadow=0;dashed=0;align=center;verticalAlign=middle;shape=mxgraph.arrows2.twoWayArrow;dy=0.65;dx=22;" vertex="1" parent="1">
          <mxGeometry x="530" y="330" width="60" height="20" as="geometry" />
        </mxCell>
        <mxCell id="oo3DCVxomcwvjLqp0UHB-25" value="" style="html=1;shadow=0;dashed=0;align=center;verticalAlign=middle;shape=mxgraph.arrows2.twoWayArrow;dy=0.65;dx=22;" vertex="1" parent="1">
          <mxGeometry x="121" y="380" width="259" height="20" as="geometry" />
        </mxCell>
      </root>
    </mxGraphModel>
  </diagram>
</mxfile>
